<?xml version="1.0" standalone="no"?><!DOCTYPE svg PUBLIC "-//W3C//DTD SVG 1.1//EN"
    "http://www.w3.org/Graphics/SVG/1.1/DTD/svg11.dtd">
<svg t="1624887437681" class="icon" viewBox="0 0 1024 1024" version="1.1"
    xmlns="http://www.w3.org/2000/svg" p-id="9893" xmlns:xlink="http://www.w3.org/1999/xlink"
    width="200" height="200">
    <path
        d="M836 938.7H380.7c-1.3 0-2.3-1-2.3-2.3V545.1c0-1.3 1-2.3 2.3-2.3H836c1.3 0 2.3 1 2.3 2.3v391.3c0 1.2-1.1 2.3-2.3 2.3z"
        fill="#F4C708" p-id="9894"></path>
    <path
        d="M763 960H261c-53.3 0-96.6-43.4-96.6-96.6v-502c0-53.3 43.4-96.6 96.6-96.6h502c53.3 0 96.6 43.4 96.6 96.6v502c0 53.2-43.3 96.6-96.6 96.6zM261 307.4c-29.8 0-54 24.2-54 54v502c0 29.8 24.2 54 54 54h502c29.8 0 54-24.2 54-54v-502c0-29.8-24.2-54-54-54H261zM737.9 207H286.1c-11.8 0-21.3-9.5-21.3-21.3s9.5-21.3 21.3-21.3h451.8c11.8 0 21.3 9.5 21.3 21.3s-9.5 21.3-21.3 21.3zM662.6 106.7H361.4c-11.8 0-21.3-9.5-21.3-21.3S349.6 64 361.4 64h301.2c11.8 0 21.3 9.5 21.3 21.3s-9.5 21.4-21.3 21.4z"
        fill="#111111" p-id="9895"></path>
    <path
        d="M574.2 724.5c-10.2 0-19.9-2.5-28.5-7.4-16.9-9.8-27.7-28.1-29.7-50.5-1.7-19.8 3.5-41.4 14.7-60.8s27.3-34.7 45.4-43.1c20.3-9.5 41.6-9.3 58.5 0.4 9.1 5.3 16.4 12.9 21.7 22.8 1.6 3.1 2.5 6.5 2.5 10v54.4c0 2.6-0.5 5.2-1.4 7.6-2.1 5.5-4.6 11-7.8 16.4-11.2 19.4-27.3 34.7-45.4 43.1-9.9 4.8-20.2 7.1-30 7.1z m32-126.2c-4.6 0-9.1 1.7-12 3-10 4.7-19.7 14.1-26.4 25.8-6.8 11.7-10.1 24.7-9.1 35.8 0.4 4.9 2.1 13.5 8.5 17.2 6.4 3.7 14.8 0.8 19.2-1.3 10-4.7 19.7-14.1 26.4-25.8 1.3-2.3 2.5-4.6 3.5-6.9v-43.8c-0.9-0.9-1.8-1.7-2.8-2.3-2.4-1.2-4.9-1.7-7.3-1.7z"
        fill="#111111" p-id="9896"></path>
    <path
        d="M386.5 709c-11.8 0-21.3-9.5-21.3-21.3V386.5c0-11.8 9.5-21.3 21.3-21.3h251c11.8 0 21.3 9.5 21.3 21.3v251c0 11.8-9.5 21.3-21.3 21.3s-21.3-9.5-21.3-21.3V407.8H407.8v279.9c0 11.8-9.5 21.3-21.3 21.3z"
        fill="#111111" p-id="9897"></path>
    <path
        d="M323.2 824.9c-10.2 0-19.9-2.5-28.5-7.4-33.3-19.3-39.9-68.1-15-111.3s70.6-61.9 103.9-42.7c9.1 5.3 16.4 12.9 21.7 22.8 1.6 3.1 2.5 6.5 2.5 10v54.4c0 2.6-0.5 5.2-1.4 7.6-2.1 5.5-4.6 11-7.8 16.4-11.2 19.4-27.3 34.7-45.4 43.1-9.9 4.8-20.1 7.1-30 7.1z m32-126.2c-11.5 0-27.7 10.3-38.4 28.8-13.2 22.9-11.3 46.9-0.6 53 6.4 3.7 14.8 0.8 19.2-1.3 10-4.7 19.7-14.1 26.4-25.8 1.3-2.3 2.5-4.6 3.5-6.9v-43.8c-0.9-0.9-1.8-1.7-2.8-2.3-2.2-1.1-4.6-1.7-7.3-1.7z"
        fill="#111111" p-id="9898"></path>
</svg>